<?xml version="1.0" encoding="UTF-8" standalone="no"?>
<svg
   xmlns:dc="http://purl.org/dc/elements/1.1/"
   xmlns:cc="http://creativecommons.org/ns#"
   xmlns:rdf="http://www.w3.org/1999/02/22-rdf-syntax-ns#"
   xmlns:svg="http://www.w3.org/2000/svg"
   xmlns="http://www.w3.org/2000/svg"
   xmlns:xlink="http://www.w3.org/1999/xlink"
   xmlns:sodipodi="http://sodipodi.sourceforge.net/DTD/sodipodi-0.dtd"
   xmlns:inkscape="http://www.inkscape.org/namespaces/inkscape"
   width="39.996658"
   height="35.596035"
   id="svg3116"
   version="1.1"
   inkscape:version="0.48.5 r10040"
   sodipodi:docname="bus_stop_yellow.svg">
  <sodipodi:namedview
     pagecolor="#ffffff"
     bordercolor="#666666"
     borderopacity="1"
     objecttolerance="10"
     gridtolerance="10"
     guidetolerance="10"
     inkscape:pageopacity="0"
     inkscape:pageshadow="2"
     inkscape:window-width="980"
     inkscape:window-height="693"
     id="namedview3139"
     showgrid="false"
     inkscape:zoom="8"
     inkscape:cx="23.014849"
     inkscape:cy="17.400428"
     inkscape:window-x="1800"
     inkscape:window-y="0"
     inkscape:window-maximized="0"
     inkscape:current-layer="g3129"
     fit-margin-top="0"
     fit-margin-left="0"
     fit-margin-right="0"
     fit-margin-bottom="0" />
  <title
     id="title3118">Light Blue Warning Sign</title>
  <defs
     id="defs3120">
    <filter
       id="filter3172"
       color-interpolation-filters="sRGB">
      <feGaussianBlur
         id="feGaussianBlur3174"
         stdDeviation="5.092479" />
    </filter>
    <linearGradient
       id="linearGradient3149">
      <stop
         stop-color="#f19f00"
         offset="0"
         id="stop3151" />
      <stop
         stop-color="#f67805"
         id="stop3153"
         offset="1" />
    </linearGradient>
    <linearGradient
       y2="265.6586"
       y1="137.83684"
       xlink:href="#linearGradient3149"
       x2="226.23975"
       x1="108.61179"
       id="linearGradient3148"
       gradientTransform="matrix(1.0697708,0,0,0.93477969,324.2953,45.100671)"
       gradientUnits="userSpaceOnUse" />
  </defs>
  <metadata
     id="metadata7">image/svg+xml3D effect warning triangle18/9/07Tim O'Ryan<rdf:RDF>
  <cc:Work
     rdf:about="">
    <dc:format>image/svg+xml</dc:format>
    <dc:type
       rdf:resource="http://purl.org/dc/dcmitype/StillImage" />
    <dc:title>Light Blue Warning Sign</dc:title>
  </cc:Work>
</rdf:RDF>
</metadata>
  <g
     id="g3129"
     transform="translate(3.9910186,-448.02968)">
    <path
       stroke-miterlimit="4"
       id="path3152"
       d="m 219.50301,57.377998 c -4.181,0.217503 -7.97101,2.5466 -10.07801,6.193302 L 41.8209,355.108 c -2.2215,3.86499 -2.2285,8.63101 -0.0184,12.50299 2.210098,3.871 6.301399,6.26001 10.732498,6.26602 L 386.76999,374.405 c 4.43301,0.014 8.53601,-2.35901 10.76102,-6.224 2.22598,-3.86401 2.237,-8.63199 0.028,-12.50699 L 230.89101,63.6091 c -2.332,-4.070099 -6.73201,-6.477402 -11.388,-6.231102 l 0,0 0,0 0,0 z M 220.102,94.839698 365.34201,349.36801 74.038101,348.91501 220.102,94.839698 l 0,0 0,0 z"
       inkscape:connector-curvature="0"
       style="opacity:0;fill:#777777;fill-opacity:0.79729698;stroke-width:2;stroke-linecap:round;stroke-linejoin:round;stroke-miterlimit:4;filter:url(#filter3172)" />
    <path
       stroke-miterlimit="4"
       id="path2178"
       d="m 15.983441,449.26066 c -0.436807,0.0229 -0.832669,0.26603 -1.052794,0.64698 l -17.5103772,30.45803 c -0.2320915,0.40381 -0.2328161,0.90176 -0.0059,1.30629 0.2308868,0.4045 0.6583296,0.654 1.1212743,0.65461 l 34.9188799,0.055 c 0.463147,0.0112 0.891819,-0.24653 1.124393,-0.65022 0.232544,-0.4038 0.233581,-0.90197 0.0086,-1.30664 L 17.17449,449.91169 c -0.243645,-0.42525 -0.703335,-0.67673 -1.189743,-0.65097 l 0,0 0,0 z"
       style="fill:#ffcc00;fill-opacity:1;stroke:#000000;stroke-width:2.4903717;stroke-linecap:round;stroke-linejoin:round;stroke-miterlimit:4;stroke-opacity:1;stroke-dasharray:none"
       inkscape:connector-curvature="0"
       sodipodi:nodetypes="cccsccccccccc" />
    <title
       id="title3135">Layer 1</title>
    <g
       style="font-size:24px;text-anchor:middle;opacity:0.5;fill:#000000;stroke-width:0;font-family:serif"
       id="svg_1" />
    <g
       style="font-size:24px;text-anchor:middle;opacity:0.5;fill:#000000;stroke-width:0;font-family:serif"
       id="svg_2" />
    <g
       transform="translate(8.4547411,446.40476)"
       inkscape:label="Layer 1"
       id="layer1">
      <path
         sodipodi:nodetypes="ccccccccccccccccccccsccsccsccccccccccccc"
         inkscape:connector-curvature="0"
         id="path3801"
         d="m 0.06970115,29.673962 c 0.41549423,0 0.83098845,1e-6 1.24648265,1e-6 0.043684,0.706498 -0.2158895,1.625549 0.5632843,2.087625 0.9254031,0.540081 1.9850764,-0.178987 1.9327331,-1.102418 0.00182,-0.676887 -0.017715,-1.011459 0.4141664,-0.985207 2.3538916,0 4.3979412,0.01289 6.7518334,0.01289 0.684495,0.01044 0.01661,1.579514 0.873125,2.074736 0.593945,0.274917 1.886027,0.395545 1.877875,-1.102418 0.03804,-0.56627 -0.08662,-1.065807 0.553375,-1.071144 0.01126,-0.0046 0.19728,-0.0036 0.744345,-0.007 -0.01691,-3.672517 0.05477,-7.611895 -0.269295,-10.771311 -0.183333,-1.78173 -2.53064,-2.04178 -3.573756,-2.30523 C 8.745545,15.956 6.1328814,15.940568 3.7086959,16.562756 2.6723017,16.841258 0.56130684,17.082629 0.46595712,18.422064 0.21579251,22.675599 0.07502422,25.043632 0.06970115,29.673962 z M 5.5391307,17.216783 c 1.5392306,0.0061 3.0794544,-0.0093 4.6183803,0.0035 0.863263,0.0092 0.972708,0.175791 0.955832,0.424819 -0.01575,0.309443 -0.326491,0.409295 -1.047684,0.419867 -1.877756,0 -3.7555122,0 -5.6332684,0 -0.4200308,-0.07316 -0.4806322,-0.237784 -0.4672245,-0.400008 0.021908,-0.265073 0.2320533,-0.471453 1.5739646,-0.448178 z M 1.117382,19.791339 c 0.2182869,-1.092665 0.00555,-1.299016 0.7185471,-1.330483 1.0740086,8.93e-4 4.8065608,0.03192 5.8805753,0.031 1.4521957,-0.0012 4.3529626,-0.0039 5.8051296,0.006 0.770324,-0.05194 0.853753,1.79338 0.874785,2.591265 0.04236,1.606976 0.10932,2.406334 0.08471,3.115629 -0.05114,1.218801 0.05107,2.089454 -0.725509,2.130106 -4.0825014,0.05313 -8.2572558,0.04385 -12.2353932,0.0099 C 0.48812273,26.299606 0.85684305,24.252452 0.78479401,23.841899 0.86210931,22.47442 0.9721924,21.134185 1.117382,19.791339 z m 0.1991846,8.055293 C 1.229581,26.70291 3.200221,26.272848 3.6914382,27.34227 4.2240111,28.260048 3.0119041,29.389802 2.0040152,28.857442 1.5946647,28.668954 1.2976128,28.270172 1.3165666,27.846632 z m 9.9714774,0 c -0.08698,-1.143719 1.883652,-1.573785 2.374871,-0.504362 0.532574,0.917779 -0.679534,2.047533 -1.687423,1.515172 -0.409351,-0.188488 -0.706403,-0.58727 -0.687448,-1.01081 z"
         style="fill:#000000;fill-opacity:0;fill-rule:nonzero;stroke:#000000;stroke-width:0.05326143;stroke-linecap:butt;stroke-linejoin:miter;stroke-miterlimit:4;stroke-opacity:1;stroke-dasharray:none" />
      <path
         transform="translate(0.00120115,16.036514)"
         inkscape:connector-curvature="0"
         id="path2992"
         d="M 2.0398009,15.740244 C 1.91809,15.683566 1.7539766,15.563696 1.6751046,15.473865 1.4213464,15.184851 1.3865934,15.051653 1.3652568,14.286314 l -0.019405,-0.696059 -0.61408781,0 -0.61408781,0 1.0301e-4,-0.82864 C 0.11813073,9.9319342 0.43008239,2.5782817 0.56819373,2.1439644 0.77251586,1.5014349 1.3835952,1.1478282 2.9682002,0.75517859 4.4366266,0.39131691 5.1068796,0.26866941 6.1280836,0.17696129 c 1.8062729,-0.16221035 3.5137975,-0.018832 5.6126604,0.47128707 1.562179,0.36479454 2.252704,0.70962334 2.665052,1.33085214 0.21836,0.3289734 0.283735,0.6032673 0.360552,1.5127862 0.133333,1.5786579 0.163287,2.5797196 0.187451,6.2645242 l 0.02456,3.7454561 -0.418971,0 c -0.753808,0 -0.830855,0.08154 -0.875545,0.926636 -0.03643,0.688985 -0.09813,0.898217 -0.334749,1.135183 -0.146717,0.146933 -0.234695,0.194237 -0.440862,0.237037 -0.428492,0.08895 -0.919548,-0.01047 -1.160139,-0.234888 -0.225111,-0.20998 -0.301283,-0.489539 -0.385263,-1.41396 -0.02037,-0.224185 -0.05332,-0.330461 -0.1302,-0.419845 L 11.1297,13.612353 7.6234748,13.599918 c -1.9284243,-0.0068 -3.550611,-0.0016 -3.6048591,0.01169 -0.1590512,0.0389 -0.2185722,0.227259 -0.2513158,0.795309 -0.020585,0.357112 -0.056421,0.587962 -0.1101178,0.709351 -0.2726676,0.616411 -1.0169886,0.903566 -1.6173812,0.623977 l 0,0 z M 2.9035364,12.945446 C 3.5479596,12.76463 3.9868645,12.09573 3.8338788,11.527584 3.7503714,11.217461 3.5211256,10.932222 3.2387885,10.787143 2.5961866,10.456942 1.6255193,10.749623 1.349742,11.356739 c -0.095781,0.21086 -0.1049881,0.59219 -0.020044,0.830205 0.1154134,0.323393 0.4813314,0.639881 0.8872016,0.767353 0.2410312,0.0757 0.39224,0.07375 0.6866372,-0.0089 l 0,0 z m 10.1665946,-0.06804 c 0.241275,-0.103794 0.587308,-0.447139 0.684094,-0.67878 0.101533,-0.243005 0.08203,-0.652393 -0.04272,-0.896885 -0.221382,-0.433864 -0.592574,-0.644513 -1.131073,-0.641878 -0.811067,0.004 -1.325825,0.443812 -1.325825,1.132869 0,0.365377 0.115046,0.632945 0.363638,0.845731 0.439668,0.37634 0.940787,0.458811 1.451885,0.238943 l 0,0 z m 1.010976,-2.625159 C 14.422297,10.0518 14.524868,9.5336797 14.52494,8.0102964 14.524984,7.0447593 14.450526,4.957411 14.390734,4.2480473 14.303381,3.2117092 14.078402,2.5802185 13.751579,2.4540063 13.702965,2.4352328 10.938619,2.413324 7.6085884,2.40532 1.0586931,2.3895768 1.3691524,2.3788269 1.270397,2.6247847 1.152178,2.9192181 0.98083773,4.4155698 0.82446695,6.5191876 0.72901151,7.8033267 0.71160886,9.0360701 0.78274703,9.4744861 0.85370758,9.9118069 1.0381243,10.20518 1.3109413,10.314746 c 0.072461,0.0291 2.2617959,0.04142 6.3639384,0.0358 6.1974513,-0.0085 6.2548443,-0.0094 6.4062273,-0.0983 l 0,0 z M 10.80435,1.9876603 c 0.171939,-0.05106 0.245223,-0.099873 0.295283,-0.1966791 0.136648,-0.2642481 0.04956,-0.483127 -0.231861,-0.5827608 C 10.630797,1.1243232 4.6491804,1.1222787 4.3733747,1.2060005 3.9921612,1.3217192 3.8264015,1.5801735 3.9660488,1.841107 4.0785295,2.0512791 4.0903516,2.0520041 7.434839,2.0538461 c 2.700059,0.00149 3.172907,-0.0078 3.369511,-0.066186 l 0,1e-7 z"
         style="fill:#0064ff;fill-opacity:0;stroke:#000000;stroke-width:0.00441942;stroke-linecap:butt;stroke-linejoin:miter;stroke-miterlimit:4;stroke-opacity:1;stroke-dasharray:none" />
      <path
         transform="translate(0.00120115,16.036514)"
         inkscape:connector-curvature="0"
         id="path2994"
         d="M 2.0128314,15.676541 C 1.5655823,15.442896 1.3996839,15.090508 1.3989229,14.372527 1.3987116,14.173192 1.3859978,13.905691 1.3706699,13.778081 l -0.027869,-0.23202 -0.59741229,0 -0.59741233,0 0.0281237,-2.066077 C 0.20419391,9.4161082 0.27840119,7.2339842 0.40464299,4.7595007 0.49401588,3.0076898 0.55315114,2.3059879 0.62969306,2.0890449 0.83785822,1.499042 1.4625225,1.1638423 3.1228798,0.75118136 4.8395839,0.32451611 5.6914929,0.20041906 7.1324015,0.16711691 8.9359551,0.12543332 10.588251,0.34291773 12.425753,0.86385759 13.86425,1.2716774 14.500944,1.8121371 14.65474,2.7559388 c 0.162696,0.998408 0.251993,3.5105461 0.284032,7.9903892 l 0.01933,2.702442 -0.44858,0.03198 c -0.24672,0.01759 -0.492288,0.04854 -0.545707,0.06877 -0.183866,0.06964 -0.238309,0.227697 -0.303824,0.88205 -0.06955,0.694702 -0.142625,0.913272 -0.377928,1.130445 -0.186787,0.172396 -0.379723,0.237946 -0.700349,0.237946 -0.323317,0 -0.62963,-0.105923 -0.816804,-0.282451 -0.182239,-0.171874 -0.266975,-0.442551 -0.350183,-1.11861 -0.03877,-0.314985 -0.09184,-0.547656 -0.146117,-0.640597 L 11.18337,13.61235 7.6282125,13.60019 c -1.9553363,-0.0067 -3.5983583,-0.0017 -3.65116,0.01103 -0.1261927,0.03049 -0.1773127,0.199797 -0.2346089,0.777038 -0.055443,0.558574 -0.095772,0.711806 -0.2434072,0.924843 -0.3240786,0.467646 -0.9797901,0.627996 -1.486204,0.363442 l 0,0 z m 1.1321455,-2.80477 C 3.9610492,12.45235 4.1193848,11.477104 3.4626704,10.91498 2.8704079,10.408026 1.6870426,10.62858 1.358556,11.307143 c -0.1266669,0.261659 -0.1264591,0.725267 4.424e-4,0.987411 0.1151043,0.237774 0.4351763,0.517331 0.7253181,0.633507 0.3083018,0.123447 0.7573073,0.09962 1.0606602,-0.05629 l 2e-7,0 z m 9.9309821,0.02155 c 0.24913,-0.110203 0.590381,-0.440169 0.682003,-0.659451 0.03663,-0.08766 0.0673,-0.28105 0.06816,-0.429748 0.0028,-0.476882 -0.221473,-0.849768 -0.622241,-1.034792 -0.208747,-0.09637 -0.311485,-0.114524 -0.651971,-0.11519 -0.374979,-7.33e-4 -0.425936,0.01031 -0.705397,0.152885 -0.236277,0.120542 -0.328407,0.197711 -0.427316,0.357922 -0.224281,0.363286 -0.228851,0.929428 -0.0103,1.27564 0.12476,0.197632 0.440792,0.429238 0.702914,0.515133 0.246274,0.0807 0.708232,0.0508 0.964148,-0.0624 l 0,0 z m 1.03699,-2.642024 c 0.171378,-0.124566 0.310894,-0.4245911 0.368848,-0.7931988 0.098,-0.6232965 0.03599,-4.2666514 -0.09176,-5.3916892 C 14.295374,3.2328202 14.106676,2.6699497 13.862064,2.4915318 13.756606,2.4146116 13.475061,2.4104004 7.6748797,2.3989884 2.7553397,2.3893091 1.5670848,2.3980519 1.4348831,2.4449003 1.2779241,2.500522 1.2689723,2.5151036 1.2042669,2.8205508 0.90043983,4.2547931 0.61627354,8.7942979 0.78156267,9.5731756 0.85652346,9.9264073 1.0614194,10.236205 1.2667245,10.306729 c 0.1181198,0.04057 1.6398119,0.05102 6.4380694,0.04419 6.2593901,-0.0089 6.2838661,-0.0093 6.4081551,-0.09962 l 0,0 z M 10.756556,2.0074278 c 0.278549,-0.055662 0.409663,-0.1950825 0.409663,-0.4356143 0,-0.1865486 -0.116138,-0.3371964 -0.299534,-0.3885374 -0.06617,-0.018524 -1.5522014,-0.033681 -3.3022907,-0.033681 l -3.1819805,0 -0.1911682,0.1020406 C 3.9530136,1.378798 3.8520749,1.5812259 3.924007,1.7875705 c 0.026323,0.075509 0.090514,0.1617283 0.1426475,0.1915987 0.18071,0.1035393 6.1862265,0.128907 6.6899015,0.028259 l 0,0 z"
         style="fill:#000000;fill-opacity:1;stroke:#000000;stroke-width:0.30000001;stroke-linecap:butt;stroke-linejoin:miter;stroke-miterlimit:4;stroke-opacity:1;stroke-dasharray:none" />
    </g>
  </g>
</svg>
