<?xml version="1.0" encoding="UTF-8" standalone="no"?>
<svg
   xmlns:dc="http://purl.org/dc/elements/1.1/"
   xmlns:cc="http://creativecommons.org/ns#"
   xmlns:rdf="http://www.w3.org/1999/02/22-rdf-syntax-ns#"
   xmlns:svg="http://www.w3.org/2000/svg"
   xmlns="http://www.w3.org/2000/svg"
   xmlns:xlink="http://www.w3.org/1999/xlink"
   xmlns:sodipodi="http://sodipodi.sourceforge.net/DTD/sodipodi-0.dtd"
   xmlns:inkscape="http://www.inkscape.org/namespaces/inkscape"
   width="39.996658"
   height="35.596035"
   id="svg3116"
   version="1.1"
   inkscape:version="0.48.5 r10040"
   sodipodi:docname="bus_stop_green.svg">
  <sodipodi:namedview
     pagecolor="#ffffff"
     bordercolor="#666666"
     borderopacity="1"
     objecttolerance="10"
     gridtolerance="10"
     guidetolerance="10"
     inkscape:pageopacity="0"
     inkscape:pageshadow="2"
     inkscape:window-width="980"
     inkscape:window-height="693"
     id="namedview3139"
     showgrid="false"
     inkscape:zoom="8"
     inkscape:cx="49.389849"
     inkscape:cy="17.400428"
     inkscape:window-x="1800"
     inkscape:window-y="0"
     inkscape:window-maximized="0"
     inkscape:current-layer="g3129"
     fit-margin-top="0"
     fit-margin-left="0"
     fit-margin-right="0"
     fit-margin-bottom="0" />
  <title
     id="title3118">Light Blue Warning Sign</title>
  <defs
     id="defs3120">
    <filter
       id="filter3172"
       color-interpolation-filters="sRGB">
      <feGaussianBlur
         id="feGaussianBlur3174"
         stdDeviation="5.092479" />
    </filter>
    <linearGradient
       id="linearGradient3149">
      <stop
         stop-color="#f19f00"
         offset="0"
         id="stop3151" />
      <stop
         stop-color="#f67805"
         id="stop3153"
         offset="1" />
    </linearGradient>
    <linearGradient
       y2="265.6586"
       y1="137.83684"
       xlink:href="#linearGradient3149"
       x2="226.23975"
       x1="108.61179"
       id="linearGradient3148"
       gradientTransform="matrix(1.0697708,0,0,0.93477969,324.2953,45.100671)"
       gradientUnits="userSpaceOnUse" />
  </defs>
  <metadata
     id="metadata7">image/svg+xml3D effect warning triangle18/9/07Tim O'Ryan<rdf:RDF>
  <cc:Work
     rdf:about="">
    <dc:format>image/svg+xml</dc:format>
    <dc:type
       rdf:resource="http://purl.org/dc/dcmitype/StillImage" />
    <dc:title>Light Blue Warning Sign</dc:title>
  </cc:Work>
</rdf:RDF>
</metadata>
  <g
     id="g3129"
     transform="translate(3.9910186,-448.02968)">
    <path
       stroke-miterlimit="4"
       id="path3152"
       d="m 219.50301,57.377998 c -4.181,0.217503 -7.97101,2.5466 -10.07801,6.193302 L 41.8209,355.108 c -2.2215,3.86499 -2.2285,8.63101 -0.0184,12.50299 2.210098,3.871 6.301399,6.26001 10.732498,6.26602 L 386.76999,374.405 c 4.43301,0.014 8.53601,-2.35901 10.76102,-6.224 2.22598,-3.86401 2.237,-8.63199 0.028,-12.50699 L 230.89101,63.6091 c -2.332,-4.070099 -6.73201,-6.477402 -11.388,-6.231102 l 0,0 0,0 0,0 z M 220.102,94.839698 365.34201,349.36801 74.038101,348.91501 220.102,94.839698 l 0,0 0,0 z"
       inkscape:connector-curvature="0"
       style="opacity:0;fill:#777777;fill-opacity:0.79729698;stroke-width:2;stroke-linecap:round;stroke-linejoin:round;stroke-miterlimit:4;filter:url(#filter3172)" />
    <path
       stroke-miterlimit="4"
       id="path2178"
       d="m 15.983441,449.26066 c -0.436807,0.0229 -0.832669,0.26603 -1.052794,0.64698 l -17.5103772,30.45803 c -0.2320915,0.40381 -0.2328161,0.90176 -0.0059,1.30629 0.2308868,0.4045 0.6583296,0.654 1.1212743,0.65461 l 34.9188799,0.055 c 0.463147,0.0112 0.891819,-0.24653 1.124393,-0.65022 0.232544,-0.4038 0.233581,-0.90197 0.0086,-1.30664 L 17.17449,449.91169 c -0.243645,-0.42525 -0.703335,-0.67673 -1.189743,-0.65097 l 0,0 0,0 z"
       style="fill:#00b51f;fill-opacity:1;stroke:#000000;stroke-width:2.49037169999999985;stroke-linecap:round;stroke-linejoin:round;stroke-miterlimit:4;stroke-opacity:1;stroke-dasharray:none"
       inkscape:connector-curvature="0"
       sodipodi:nodetypes="cccsccccccccc" />
    <title
       id="title3135">Layer 1</title>
    <g
       style="font-size:24px;text-anchor:middle;opacity:0.5;fill:#000000;stroke-width:0;font-family:serif"
       id="svg_1" />
    <g
       style="font-size:24px;text-anchor:middle;opacity:0.5;fill:#000000;stroke-width:0;font-family:serif"
       id="svg_2" />
  </g>
</svg>
