<?xml version="1.0" encoding="UTF-8" standalone="no"?>
<!-- Created with Inkscape (http://www.inkscape.org/) -->

<svg
   xmlns:dc="http://purl.org/dc/elements/1.1/"
   xmlns:cc="http://creativecommons.org/ns#"
   xmlns:rdf="http://www.w3.org/1999/02/22-rdf-syntax-ns#"
   xmlns:svg="http://www.w3.org/2000/svg"
   xmlns="http://www.w3.org/2000/svg"
   xmlns:sodipodi="http://sodipodi.sourceforge.net/DTD/sodipodi-0.dtd"
   xmlns:inkscape="http://www.inkscape.org/namespaces/inkscape"
   width="32px"
   height="32px"
   id="svg3214"
   version="1.1"
   inkscape:version="0.48.5 r10040"
   sodipodi:docname="bus_circle_2_path.svg">
  <defs
     id="defs3216" />
  <sodipodi:namedview
     id="base"
     pagecolor="#ffffff"
     bordercolor="#666666"
     borderopacity="1.0"
     inkscape:pageopacity="0.0"
     inkscape:pageshadow="2"
     inkscape:zoom="16"
     inkscape:cx="17.557856"
     inkscape:cy="13.740879"
     inkscape:current-layer="layer1"
     showgrid="true"
     inkscape:grid-bbox="true"
     inkscape:document-units="px"
     inkscape:window-width="1068"
     inkscape:window-height="775"
     inkscape:window-x="1426"
     inkscape:window-y="103"
     inkscape:window-maximized="0" />
  <metadata
     id="metadata3219">
    <rdf:RDF>
      <cc:Work
         rdf:about="">
        <dc:format>image/svg+xml</dc:format>
        <dc:type
           rdf:resource="http://purl.org/dc/dcmitype/StillImage" />
        <dc:title></dc:title>
      </cc:Work>
    </rdf:RDF>
  </metadata>
  <g
     id="layer1"
     inkscape:label="Layer 1"
     inkscape:groupmode="layer">
    <path
       id="path3801"
       style="fill:#000000;fill-opacity:0;fill-rule:nonzero;stroke:#000000;stroke-width:0.51523346;stroke-linecap:butt;stroke-linejoin:miter;stroke-miterlimit:4;stroke-opacity:1;stroke-dasharray:none"
       d="M 21.303358,1.1825628 C 29.49752,4.0807761 33.789982,13.073186 30.890841,21.267676 27.991702,29.462167 18.998805,33.755647 10.804643,30.857435 2.6104814,27.959222 -1.6819812,18.966809 1.2171588,10.772318 4.1158115,2.5792088 13.106357,-1.7144618 21.299829,1.1813153 m 0.190007,18.4803267 c -0.08144,-1.422119 1.813624,-2.321391 2.864935,-1.3618 1.155681,0.840715 0.650758,2.87402 -0.759175,3.08524 -1.051008,0.241424 -2.14138,-0.642604 -2.10576,-1.72344 z m -14.0446853,0 c -0.081441,-1.422119 1.8136238,-2.321391 2.8649363,-1.3618 1.155679,0.840715 0.650758,2.87402 -0.7591764,3.08524 -1.0510067,0.241424 -2.14138,-0.642604 -2.1057599,-1.72344 z M 8.0760651,14.230299 C 8.425448,12.425829 8.7324769,10.611084 9.108586,8.8131007 9.4468486,8.0045975 10.410778,8.309662 11.093029,8.250336 c 3.859328,0.00825 7.719997,-0.01656 11.578485,0.012427 0.877771,0.1939287 0.745152,1.2318623 0.937758,1.90982 0.251103,1.420052 0.56184,2.832491 0.774538,4.257446 -0.03554,0.888237 -0.998906,0.880327 -1.654707,0.842646 -4.59632,0 -9.192641,0 -13.7889606,0 C 8.4056569,15.296455 7.964985,14.747022 8.0760651,14.230299 z M 11.175771,5.8364057 c 0.06659,-0.8647991 1.035305,-0.6247773 1.629486,-0.6583445 2.602262,-2e-7 5.204524,0 7.806786,0 0.583157,-0.00746 0.70333,0.4200633 0.702913,0.7292505 -4.91e-4,0.364018 -0.300898,0.6073185 -1.285599,0.5874387 -2.731746,1e-7 -5.463494,-1e-7 -8.195241,0 -0.35179,0.013617 -0.671962,-0.3065558 -0.658345,-0.6583447 z M 5.689565,15.780152 c 0,2.756818 0,5.513636 0,8.270454 0.5851953,4e-6 1.1703904,-3e-6 1.7555857,1e-6 0.068984,0.9094 -0.1976576,1.903082 0.2893121,2.726387 0.6956586,1.165684 2.6293822,0.975655 3.0932772,-0.297027 0.234446,-0.784071 0.08717,-1.620257 0.128583,-2.42936 3.511171,0 7.022342,0 10.533513,0 0.06899,0.9094 -0.197657,1.903082 0.289311,2.726387 0.695659,1.165685 2.629382,0.975654 3.093277,-0.297027 0.234446,-0.784071 0.08717,-1.620257 0.128583,-2.42936 0.585195,3e-6 1.17039,-3e-6 1.755586,0 -0.01842,-3.076228 0.03922,-6.154226 -0.03348,-9.229201 C 26.5203,12.652003 25.877959,10.556915 25.439651,8.4281894 25.200703,7.5315404 25.100965,6.5886867 24.755093,5.729039 23.739722,4.1544283 21.743279,3.6518613 20.017669,3.2986072 16.824988,2.7881659 13.472746,2.8272607 10.377968,3.8312085 9.0736359,4.3013985 7.5424072,5.1427261 7.4013853,6.6839837 6.8799201,9.0600459 6.244769,11.413765 5.8127902,13.807475 5.7267246,14.461228 5.689614,15.120933 5.689565,15.780152 z"
       inkscape:connector-curvature="0"
       sodipodi:nodetypes="cssscccccccccccccccccccccscccccccccccccccccccccc" />
  </g>
</svg>
