<?xml version="1.0" encoding="UTF-8" standalone="no"?>
<!-- Created with Inkscape (http://www.inkscape.org/) -->

<svg
   xmlns:dc="http://purl.org/dc/elements/1.1/"
   xmlns:cc="http://creativecommons.org/ns#"
   xmlns:rdf="http://www.w3.org/1999/02/22-rdf-syntax-ns#"
   xmlns:svg="http://www.w3.org/2000/svg"
   xmlns="http://www.w3.org/2000/svg"
   xmlns:sodipodi="http://sodipodi.sourceforge.net/DTD/sodipodi-0.dtd"
   xmlns:inkscape="http://www.inkscape.org/namespaces/inkscape"
   width="32px"
   height="32px"
   id="svg3076"
   version="1.1"
   inkscape:version="0.48.5 r10040"
   sodipodi:docname="bus_circle.svg">
  <defs
     id="defs3078">
    <inkscape:perspective
       sodipodi:type="inkscape:persp3d"
       inkscape:vp_x="0 : 16 : 1"
       inkscape:vp_y="0 : 1000 : 0"
       inkscape:vp_z="32 : 16 : 1"
       inkscape:persp3d-origin="16 : 10.666667 : 1"
       id="perspective3106" />
  </defs>
  <sodipodi:namedview
     id="base"
     pagecolor="#ffffff"
     bordercolor="#666666"
     borderopacity="1.0"
     inkscape:pageopacity="0.0"
     inkscape:pageshadow="2"
     inkscape:zoom="11.313709"
     inkscape:cx="21.962448"
     inkscape:cy="15.559544"
     inkscape:current-layer="layer1"
     showgrid="true"
     inkscape:grid-bbox="true"
     inkscape:document-units="px"
     inkscape:snap-object-midpoints="true"
     inkscape:snap-bbox="false"
     inkscape:snap-global="true"
     inkscape:snap-nodes="false"
     inkscape:window-width="861"
     inkscape:window-height="632"
     inkscape:window-x="1746"
     inkscape:window-y="166"
     inkscape:window-maximized="0"
     showguides="true"
     inkscape:guide-bbox="true" />
  <metadata
     id="metadata3081">
    <rdf:RDF>
      <cc:Work
         rdf:about="">
        <dc:format>image/svg+xml</dc:format>
        <dc:type
           rdf:resource="http://purl.org/dc/dcmitype/StillImage" />
        <dc:title></dc:title>
      </cc:Work>
    </rdf:RDF>
  </metadata>
  <g
     inkscape:groupmode="layer"
     id="layer2"
     inkscape:label="Layer">
    <path
       style="fill:#ffffff;fill-opacity:1;stroke:#000000;stroke-opacity:1"
       d="m 25.5625,19.03125 c 0,5.609142 -4.798948,10.15625 -10.71875,10.15625 C 8.9239478,29.1875 4.125,24.640392 4.125,19.03125 4.125,13.422108 8.9239478,8.875 14.84375,8.875 c 5.919802,0 10.71875,4.547108 10.71875,10.15625 z"
       id="path3947"
       transform="matrix(1.423781,0,0,1.4994691,-5.0595291,-12.446674)" />
  </g>
  <g
     id="layer1"
     inkscape:label="Layer 1ӽ
     inkscape:groupmode="layer">
    <a
       id="a3949"
       transform="translate(0.20000005,0)" />
    <a
       id="a3124"
       transform="matrix(1.1241392,0,0,0.9172532,-0.03553885,1.5326042)" />
    <path
       style="fill:#000000;stroke:#000000;stroke-width:0.98799998;stroke-linejoin:miter;stroke-miterlimit:4;stroke-dasharray:none"
       d="M 14,4.5625 C 13.391771,4.5616742 12.830533,4.5770602 12.3125,4.59375 9.2043031,4.6938886 7.7309581,5.1728785 7.5625,6.4375 6.6643536,13.179922 6.5605623,21.142703 6.5,23.59375 c -0.011274,0.652338 2.6785128,0.484641 0.5625,0.21875 0.2721318,1.76e-4 0.6738403,0.02798 0.96875,0.03125 l 0,1.75 0.03125,0 C 8.0432616,25.66723 8,25.732823 8,25.8125 l 0,0.71875 c 0,0.499182 0.407068,0.90625 0.90625,0.90625 l 0.5,0 c 0.4991819,0 0.90625,-0.407068 0.90625,-0.90625 l 0,-0.71875 c 0,-0.07887 -0.01239,-0.145939 -0.03125,-0.21875 l 0.03125,0 0,-1.71875 c 3.744276,0.09778 8.098572,0.303302 11.1875,0.3125 l 0,1.46875 0.03125,0 C 21.517059,25.720181 21.5,25.775425 21.5,25.84375 l 0,0.75 c 0,0.502393 0.403857,0.90625 0.90625,0.90625 l 0.375,0 c 0.502393,0 0.90625,-0.403857 0.90625,-0.90625 l 0,-0.75 c 0,-0.06833 -0.01706,-0.123569 -0.03125,-0.1875 l 0.03125,0 0,-1.53125 c 0.796817,-0.05126 1.363874,-0.123529 1.375,-0.28125 0.01011,-5.592935 0.0012,-12.121745 -0.84375,-17.8125 -0.334416,-1.4248586 -4.511718,-1.373354 -8.25,-1.4375 C 15.263448,4.5803633 14.608229,4.5633258 14,4.5625 z M 15.765625,5.75 c 3.366875,0.00668 6.170155,0.1911756 6.5,1.59375 0.322327,1.2071795 0.569215,2.5255648 0.734375,3.875 0.119089,0.97301 0.301003,2.392322 0.445915,3.501573 0.100547,0.769648 0.231897,1.381924 0.110575,1.625869 -0.06415,0.12899 -0.154968,0.322371 -0.433711,0.416753 C 22.100786,17.121432 8.8412391,17.559229 8.2152163,16.668552 7.2022361,15.227333 7.9783987,16.577672 8.0091529,16.5 8.304593,13.481886 8.2097138,10.426249 9.625,7.25 10.22707,5.8754471 12.444449,5.7434151 15.765625,5.75 z M 21,18.53125 c 1.224039,0 2.21875,0.988797 2.21875,2.21875 0,1.229953 -0.994711,2.25 -2.21875,2.25 -1.224039,0 -2.21875,-1.020047 -2.21875,-2.25 0,-1.229953 0.994711,-2.21875 2.21875,-2.21875 z M 10.90625,18.5625 c 1.224039,0 2.21875,0.988797 2.21875,2.21875 C 13.125,22.011203 12.130289,23 10.90625,23 9.6822115,23 8.6875,22.011203 8.6875,20.78125 c 0,-1.229953 0.9947115,-2.21875 2.21875,-2.21875 z"
       id="rect3122-4"
       inkscape:connector-curvature="0"
       sodipodi:nodetypes="ssscccccssssssccccccssssssccccccsscssscsccsssssssssss" />
  </g>
</svg>
