<?xml version="1.0" encoding="UTF-8" standalone="no"?>
<!-- Created with Inkscape (http://www.inkscape.org/) -->

<svg
   xmlns:dc="http://purl.org/dc/elements/1.1/"
   xmlns:cc="http://creativecommons.org/ns#"
   xmlns:rdf="http://www.w3.org/1999/02/22-rdf-syntax-ns#"
   xmlns:svg="http://www.w3.org/2000/svg"
   xmlns="http://www.w3.org/2000/svg"
   xmlns:sodipodi="http://sodipodi.sourceforge.net/DTD/sodipodi-0.dtd"
   xmlns:inkscape="http://www.inkscape.org/namespaces/inkscape"
   width="13.698188"
   height="15.955342"
   id="svg3214"
   version="1.1"
   inkscape:version="0.48.5 r10040"
   sodipodi:docname="fa_bus.svg">
  <defs
     id="defs3216" />
  <sodipodi:namedview
     id="base"
     pagecolor="#ffffff"
     bordercolor="#666666"
     borderopacity="1.0"
     inkscape:pageopacity="0.0"
     inkscape:pageshadow="2"
     inkscape:zoom="16"
     inkscape:cx="18.564611"
     inkscape:cy="6.2327344"
     inkscape:current-layer="layer1"
     showgrid="true"
     inkscape:grid-bbox="true"
     inkscape:document-units="px"
     inkscape:window-width="1335"
     inkscape:window-height="778"
     inkscape:window-x="1480"
     inkscape:window-y="121"
     inkscape:window-maximized="0"
     fit-margin-top="0"
     fit-margin-left="0"
     fit-margin-right="0"
     fit-margin-bottom="0" />
  <metadata
     id="metadata3219">
    <rdf:RDF>
      <cc:Work
         rdf:about="">
        <dc:format>image/svg+xml</dc:format>
        <dc:type
           rdf:resource="http://purl.org/dc/dcmitype/StillImage" />
        <dc:title />
      </cc:Work>
    </rdf:RDF>
  </metadata>
  <g
     id="layer1"
     inkscape:label="Layer 1"
     inkscape:groupmode="layer"
     transform="translate(-0.00120115,-16.036514)">
    <path
       style="fill:#000000;fill-opacity:0;fill-rule:nonzero;stroke:#000000;stroke-width:0.05073111;stroke-linecap:butt;stroke-linejoin:miter;stroke-miterlimit:4;stroke-opacity:1;stroke-dasharray:none"
       d="m 0.06370115,24.346545 c 0,1.775806 0,3.551611 0,5.327417 0.37695375,0 0.7539075,1e-6 1.13086125,1e-6 0.039632,0.706498 -0.19586404,1.625549 0.511035,2.087625 0.7794222,0.517984 1.8810768,-0.178987 1.7533991,-1.102418 0.074602,-0.378444 -0.2549387,-1.156647 0.3758066,-0.985207 2.135549,0 4.2710979,0 6.4066469,0 0.03963,0.706498 -0.195868,1.625549 0.511034,2.087625 0.779421,0.517984 1.881077,-0.178987 1.753397,-1.102418 0.0746,-0.378444 -0.25493,-1.156647 0.375813,-0.985207 0.229942,-0.05151 0.673684,0.10958 0.751823,-0.09289 -0.02419,-2.037406 0.05566,-4.078868 -0.04878,-6.113581 -0.241038,-1.74767 -0.74205,-3.44604 -1.098716,-5.171325 C 12.231306,17.243645 11.093299,16.767986 10.14694,16.504536 7.9347898,15.956 5.564472,15.940568 3.3651495,16.562756 2.4248893,16.841258 1.2879274,17.391987 1.1663809,18.487245 0.8103593,20.228137 0.25578759,21.936987 0.08262121,23.709873 0.06970667,23.921833 0.06373852,24.134216 0.06370115,24.346545 z M 3.5976435,17.941278 c 0.1321117,-0.650148 0.9385818,-0.369768 1.428153,-0.424073 1.5923695,0.007 3.1859104,-0.01407 4.7775417,0.01064 0.8183898,0.409159 -0.092458,1.055003 -0.6708856,0.837507 -1.703579,0 -3.407158,0 -5.110737,0 -0.2264242,0.009 -0.4329969,-0.197663 -0.4240721,-0.424072 z m -1.9966773,5.406927 c 0.2479123,-1.189548 0.400816,-2.407959 0.7105333,-3.578963 0.4491495,-0.507608 1.2239003,-0.174391 1.8155132,-0.272149 2.291871,0.0021 4.58378,-0.01008 6.8756183,0.0071 0.63637,0.182434 0.486159,0.986934 0.650476,1.487359 0.141438,0.861618 0.376303,1.717713 0.441394,2.58594 -0.186535,0.605392 -0.90624,0.417535 -1.391239,0.44214 -2.8903126,-0.0072 -5.7818595,0.01439 -8.6714,-0.0108 -0.2858905,-0.06226 -0.4936258,-0.372549 -0.4308958,-0.660643 z m -0.4064038,3.498604 c -0.078917,-1.143722 1.7089301,-1.573784 2.1545828,-0.504362 0.4831725,0.917778 -0.6165017,2.047532 -1.5309007,1.515172 -0.3713799,-0.188488 -0.6408778,-0.58727 -0.6236821,-1.01081 z m 9.0468886,0 c -0.07891,-1.143719 1.708928,-1.573785 2.154583,-0.504362 0.483173,0.917779 -0.616502,2.047533 -1.530901,1.515172 -0.37138,-0.188488 -0.640878,-0.58727 -0.623682,-1.01081 z"
       id="path3801"
       inkscape:connector-curvature="0" />
  </g>
</svg>
