<?xml version="1.0" encoding="UTF-8" standalone="no"?>
<!-- Created with Inkscape (http://www.inkscape.org/) -->

<svg
   xmlns:dc="http://purl.org/dc/elements/1.1/"
   xmlns:cc="http://creativecommons.org/ns#"
   xmlns:rdf="http://www.w3.org/1999/02/22-rdf-syntax-ns#"
   xmlns:svg="http://www.w3.org/2000/svg"
   xmlns="http://www.w3.org/2000/svg"
   xmlns:sodipodi="http://sodipodi.sourceforge.net/DTD/sodipodi-0.dtd"
   xmlns:inkscape="http://www.inkscape.org/namespaces/inkscape"
   width="13.7"
   height="16"
   id="svg3214"
   version="1.1"
   inkscape:version="0.48.5 r10040"
   sodipodi:docname="fa_bus.svg">
  <defs
     id="defs3216" />
  <sodipodi:namedview
     id="base"
     pagecolor="#ffffff"
     bordercolor="#666666"
     borderopacity="1.0"
     inkscape:pageopacity="0.0"
     inkscape:pageshadow="2"
     inkscape:zoom="16"
     inkscape:cx="6.4729381"
     inkscape:cy="6.240879"
     inkscape:current-layer="layer1"
     showgrid="true"
     inkscape:grid-bbox="true"
     inkscape:document-units="px"
     inkscape:window-width="1132"
     inkscape:window-height="779"
     inkscape:window-x="1426"
     inkscape:window-y="103"
     inkscape:window-maximized="0" />
  <metadata
     id="metadata3219">
    <rdf:RDF>
      <cc:Work
         rdf:about="">
        <dc:format>image/svg+xml</dc:format>
        <dc:type
           rdf:resource="http://purl.org/dc/dcmitype/StillImage" />
        <dc:title />
      </cc:Work>
    </rdf:RDF>
  </metadata>
  <g
     id="layer1"
     inkscape:label="Layer 1"
     inkscape:groupmode="layer"
     transform="translate(0,-16)">
    <path
       id="path3801"
       style="fill:#000000;fill-opacity:0;fill-rule:nonzero;stroke:#000000;stroke-width:0.05073111;stroke-linecap:butt;stroke-linejoin:miter;stroke-miterlimit:4;stroke-opacity:1;stroke-dasharray:none"
       d="m 0.06370115,24.346545 c 0,1.775805 0,3.55161 0,5.327417 0.37695395,2e-6 0.75390757,-1e-6 1.13086125,1e-6 0.044437,0.585789 -0.1273212,1.225868 0.1863604,1.756203 0.4481089,0.750874 1.6937176,0.628467 1.9925357,-0.191332 0.1510186,-0.505059 0.056148,-1.043689 0.082825,-1.564871 2.2617218,0 4.5234437,0 6.7851665,0 0.04444,0.585789 -0.127324,1.225868 0.186359,1.756203 0.448109,0.750874 1.693718,0.628467 1.992535,-0.191332 0.15102,-0.505059 0.05614,-1.043689 0.08283,-1.564871 0.376957,1e-6 0.753909,-1e-6 1.130864,0 -0.01186,-1.981555 0.02525,-3.964247 -0.02159,-5.944995 C 13.481829,22.331548 13.068065,20.981996 12.78573,19.610776 12.631817,19.0332 12.567571,18.42586 12.344778,17.872117 11.690725,16.85783 10.404718,16.534102 9.2931645,16.306554 7.2365974,15.977753 5.0772508,16.002935 3.0837476,16.649628 2.243562,16.952502 1.2572201,17.494443 1.1663809,18.487245 0.83047891,20.017788 0.42134603,21.533935 0.14308667,23.075844 0.087647,23.496959 0.0637434,23.921906 0.06371182,24.346545 z M 3.5976435,17.941278 c 0.042896,-0.557063 0.6668915,-0.402451 1.0496334,-0.424073 1.6762478,-1e-6 3.3524962,0 5.0287446,0 0.3756415,-0.0048 0.4530505,0.270584 0.4527835,0.469747 -3.17e-4,0.234481 -0.1938266,0.391204 -0.8281214,0.378398 -1.7596554,0 -3.5193113,0 -5.278968,0 C 3.79511,18.37415 3.5888718,18.167883 3.5976435,17.941278 z m -1.9966773,5.406927 c 0.2250551,-1.162349 0.4228279,-2.331317 0.6650982,-3.489487 0.2178927,-0.520799 0.8388074,-0.324291 1.2782804,-0.362505 2.4859868,0.0053 4.9728386,-0.01066 7.4582862,0.008 0.565415,0.124919 0.479988,0.793503 0.604055,1.230211 0.161748,0.914727 0.361909,1.82455 0.49892,2.742437 -0.02291,0.572155 -0.643446,0.567059 -1.065882,0.542791 -2.9607206,0 -5.9214411,0 -8.8821625,0 C 1.8132728,24.034962 1.5294139,23.68105 1.6009662,23.348203 z M 1.1945624,26.846809 C 1.1421029,25.930749 2.3628086,25.351486 3.0400119,25.969607 3.7844428,26.51115 3.4591978,27.820905 2.5509887,27.956964 1.8739823,28.112477 1.1716178,27.54303 1.1945624,26.846809 z m 9.0468886,0 c -0.05245,-0.91606 1.168246,-1.495323 1.845449,-0.877202 0.744433,0.541543 0.419186,1.851298 -0.489021,1.987357 -0.677009,0.155513 -1.379373,-0.413934 -1.356428,-1.110155 z"
       inkscape:connector-curvature="0" />
  </g>
</svg>
