<?xml version="1.0" encoding="UTF-8" standalone="no"?>
<!-- Created with Inkscape (http://www.inkscape.org/) -->

<svg
   xmlns:dc="http://purl.org/dc/elements/1.1/"
   xmlns:cc="http://creativecommons.org/ns#"
   xmlns:rdf="http://www.w3.org/1999/02/22-rdf-syntax-ns#"
   xmlns:svg="http://www.w3.org/2000/svg"
   xmlns="http://www.w3.org/2000/svg"
   version="1.1"
   width="765"
   height="495"
   id="svg3023"
   xml:space="preserve"><metadata
     id="metadata3029"><rdf:RDF><cc:Work
         rdf:about=""><dc:format>image/svg+xml</dc:format><dc:type
           rdf:resource="http://purl.org/dc/dcmitype/StillImage" /><dc:title></dc:title></cc:Work></rdf:RDF></metadata><defs
     id="defs3027"><clipPath
       id="clipPath3037"><path
         d="m 6.542,116.747 597.835,0 0,272.987 -597.835,0 0,-272.987 z"
         id="path3039" /></clipPath><clipPath
       id="clipPath3069"><path
         d="M 0,396 612,396 612,0 0,0 0,396 z"
         id="path3071" /></clipPath></defs><g
     transform="matrix(1.25,0,0,-1.25,0,495)"
     id="g3031"><g
       id="g3033"><g
         clip-path="url(#clipPath3037)"
         id="g3035"><g
           transform="translate(456.1377,291.1592)"
           id="g3041"><path
             d="m 0,0 c -53.295,0 -184.735,-0.049 -184.735,-0.049 l 0,98.354 c 0,0 140.243,0.495 197.8,0.184 145.583,-8.205 172.679,-256.639 1.748,-273.563 -41.234,0 -199.548,1.148 -199.548,1.148 l 0,93.804 185.745,0 C 50.256,-80.122 50.256,-0.049 0,0"
             id="path3043"
             style="fill:#1478c7;fill-opacity:1;fill-rule:nonzero;stroke:none" /></g><path
           d="m 255.86,211.208 -247.928,0 0,-93.955 247.928,0 0,93.955 z"
           id="path3045"
           style="fill:#4a8528;fill-opacity:1;fill-rule:nonzero;stroke:none" /></g></g><path
       d="m 253.808,252.806 11.501,0 0,-10.792 -11.501,0 0,10.792 z"
       id="path3047"
       style="fill:#231f20;fill-opacity:1;fill-rule:nonzero;stroke:none" /><g
       transform="translate(36.9673,258.6348)"
       id="g3049"><path
         d="m 0,0 17.236,20.519 11.842,0 0,-55.299 -13.432,0 0,34.503 -14.626,-17.357 -2.047,0 -14.476,17.357 0,-34.503 -13.43,0 0,55.299 11.871,0 L 0,0 z"
         id="path3051"
         style="fill:#231f20;fill-opacity:1;fill-rule:nonzero;stroke:none" /></g><path
       d="m 91.71,223.854 -13.432,0 0,55.299 13.432,0 0,-55.299 z"
       id="path3053"
       style="fill:#231f20;fill-opacity:1;fill-rule:nonzero;stroke:none" /><g
       transform="translate(136.8462,244.4312)"
       id="g3055"><path
         d="M 0,0 -8.73,21.483 -16.66,0 0,0 z m -1.076,34.722 23.854,-55.299 -14.418,0 -4.414,10.86 -24.191,0 -4.009,-10.86 -14.27,0 21.781,55.299 15.667,0 z"
         id="path3057"
         style="fill:#231f20;fill-opacity:1;fill-rule:nonzero;stroke:none" /></g><g
       transform="translate(194.9995,258.6348)"
       id="g3059"><path
         d="m 0,0 17.235,20.519 11.842,0 0,-55.299 -13.432,0 0,34.503 -14.626,-17.357 -2.047,0 -14.477,17.357 0,-34.503 -13.431,0 0,55.299 11.873,0 L 0,0 z"
         id="path3061"
         style="fill:#231f20;fill-opacity:1;fill-rule:nonzero;stroke:none" /></g><path
       d="m 249.742,223.854 -13.431,0 0,55.299 13.431,0 0,-55.299 z"
       id="path3063"
       style="fill:#231f20;fill-opacity:1;fill-rule:nonzero;stroke:none" /><g
       id="g3065"><g
         clip-path="url(#clipPath3069)"
         id="g3067"><g
           transform="translate(284.9468,268.9727)"
           id="g3073"><path
             d="m 0,0 0,-35.008 8.702,0 c 5.644,0 9.963,1.6 12.957,4.805 2.99,3.204 4.491,7.43 4.491,12.68 0,5.431 -1.519,9.709 -4.551,12.835 C 18.566,-1.563 14.215,0 8.546,0 L 0,0 z m -13.433,10.146 23.718,0 c 9.143,0 16.383,-2.582 21.719,-7.741 5.336,-5.158 8.005,-11.826 8.005,-20.007 0,-8.578 -2.7,-15.314 -8.107,-20.208 -5.401,-4.897 -13.107,-7.342 -23.12,-7.342 l -22.215,0 0,55.298 z"
             id="path3075"
             style="fill:#231f20;fill-opacity:1;fill-rule:nonzero;stroke:none" /></g><g
           transform="translate(356.8242,244.396)"
           id="g3077"><path
             d="M 0,0 -8.727,21.485 -16.658,0 0,0 z m -1.075,34.722 23.852,-55.298 -14.42,0 -4.411,10.859 -24.193,0 -4.007,-10.859 -14.267,0 21.78,55.298 15.666,0 z"
             id="path3079"
             style="fill:#231f20;fill-opacity:1;fill-rule:nonzero;stroke:none" /></g><g
           transform="translate(393.2246,268.9727)"
           id="g3081"><path
             d="m 0,0 0,-35.008 8.705,0 c 5.644,0 9.959,1.6 12.956,4.805 2.992,3.204 4.489,7.43 4.489,12.68 0,5.431 -1.519,9.709 -4.549,12.835 C 18.569,-1.563 14.214,0 8.547,0 L 0,0 z m -13.434,10.146 23.719,0 c 9.144,0 16.386,-2.582 21.72,-7.741 5.334,-5.158 8.005,-11.826 8.005,-20.007 0,-8.578 -2.7,-15.314 -8.105,-20.208 -5.402,-4.897 -13.111,-7.342 -23.12,-7.342 l -22.219,0 0,55.298 z"
             id="path3083"
             style="fill:#231f20;fill-opacity:1;fill-rule:nonzero;stroke:none" /></g><g
           transform="translate(476.6689,233.9644)"
           id="g3085"><path
             d="m 0,0 0,-10.144 -39.723,0 0,55.298 39.151,0 0,-10.146 -25.72,0 0,-11.574 24.578,0 0,-10.144 -24.578,0 0,-13.29 L 0,0 z"
             id="path3087"
             style="fill:#231f20;fill-opacity:1;fill-rule:nonzero;stroke:none" /></g><g
           transform="translate(48.5894,151.1357)"
           id="g3089"><path
             d="m 0,0 0,-11.973 c -4.233,-3.641 -8.676,-5.458 -13.329,-5.458 -5.994,0 -10.772,2.712 -14.336,8.131 -3.564,5.424 -5.342,12.109 -5.342,20.053 0,7.945 1.871,14.686 5.612,20.227 3.742,5.543 8.647,8.316 14.717,8.316 4.832,0 8.914,-1.607 12.248,-4.817 l 0,-12.187 c -4.09,3.717 -7.966,5.572 -11.635,5.572 -3.592,0 -6.525,-1.585 -8.807,-4.752 -2.282,-3.165 -3.419,-7.201 -3.419,-12.099 0,-4.932 1.127,-8.997 3.384,-12.206 2.258,-3.203 5.144,-4.808 8.663,-4.808 1.732,0 3.404,0.367 5.02,1.112 C -5.61,-4.148 -3.201,-2.518 0,0"
             id="path3091"
             style="fill:#ffffff;fill-opacity:1;fill-rule:nonzero;stroke:none" /></g><g
           transform="translate(73.2842,145.1348)"
           id="g3093"><path
             d="m 0,0 c 3.211,0 5.795,1.558 7.755,4.672 1.96,3.11 2.939,7.2 2.939,12.262 0,5.086 -0.979,9.18 -2.939,12.282 -1.96,3.098 -4.544,4.649 -7.755,4.649 -3.211,0 -5.804,-1.551 -7.775,-4.649 -1.977,-3.102 -2.962,-7.196 -2.962,-12.282 0,-5.062 0.985,-9.152 2.962,-12.262 C -5.804,1.558 -3.211,0 0,0 m 0,45.297 c 5.798,0 10.483,-2.846 14.054,-8.53 3.572,-5.689 5.358,-12.308 5.358,-19.853 0,-7.656 -1.813,-14.292 -5.436,-19.916 C 10.35,-8.62 5.693,-11.43 0,-11.43 c -5.747,0 -10.428,2.797 -14.038,8.394 -3.611,5.595 -5.414,12.24 -5.414,19.95 0,7.573 1.789,14.195 5.374,19.872 3.586,5.673 8.276,8.511 14.078,8.511"
             id="path3095"
             style="fill:#ffffff;fill-opacity:1;fill-rule:nonzero;stroke:none" /></g><g
           transform="translate(123.8169,189.5752)"
           id="g3097"><path
             d="m 0,0 8.431,0 0,-31.312 c 0,-8.055 -1.465,-14.164 -4.392,-18.321 -2.926,-4.158 -7.106,-6.237 -12.54,-6.237 -5.356,0 -9.518,2.103 -12.482,6.314 -2.968,4.212 -4.452,10.267 -4.452,18.166 l 0,31.39 8.432,0 0,-31.721 c 0,-3.843 0.774,-6.925 2.326,-9.243 1.551,-2.315 3.576,-3.476 6.077,-3.476 2.604,0 4.688,1.185 6.252,3.556 1.565,2.371 2.348,5.74 2.348,10.113 L 0,0 z"
             id="path3099"
             style="fill:#ffffff;fill-opacity:1;fill-rule:nonzero;stroke:none" /></g><g
           transform="translate(173.8032,189.5752)"
           id="g3101"><path
             d="m 0,0 0,-55.014 -7.033,0 -18.687,35.246 0,-35.246 -8.43,0 0,55.014 7.733,0 L -8.432,-33.632 -8.432,0 0,0 z"
             id="path3103"
             style="fill:#ffffff;fill-opacity:1;fill-rule:nonzero;stroke:none" /></g><g
           transform="translate(212.1138,189.5752)"
           id="g3105"><path
             d="m 0,0 0,-10.146 -12.289,0 0,-44.868 -8.429,0 0,44.868 -12.29,0 0,10.146 L 0,0 z"
             id="path3107"
             style="fill:#ffffff;fill-opacity:1;fill-rule:nonzero;stroke:none" /></g><g
           transform="translate(226.646,134.5615)"
           id="g3109"><path
             d="m 0,0 0,25.35 -13.288,29.664 10.186,0 7.318,-17.289 7.456,17.289 10.192,0 L 8.432,25.679 8.432,0 0,0 z"
             id="path3111"
             style="fill:#ffffff;fill-opacity:1;fill-rule:nonzero;stroke:none" /></g><g
           transform="translate(35.5068,81.1699)"
           id="g3113"><path
             d="m 0,0 c -6.188,0 -14.433,-0.122 -23.969,-1.081 0.516,2.04 0.643,4.08 0.643,6.115 0,1.797 -0.257,3.599 -0.643,5.276 6.57,-0.718 19.588,-0.959 34.792,-0.959 15.979,0 26.42,0.241 34.796,0.959 -0.389,-2.157 -0.648,-3.956 -0.648,-5.755 0,-1.918 0.388,-4.317 0.648,-5.636 C 38.014,-0.238 29.766,0 22.55,0 c -0.257,-5.277 -0.257,-13.429 -0.257,-22.538 0,-7.074 -0.127,-22.061 -0.127,-29.973 0,-7.191 0.256,-13.783 0.9,-20.376 -3.735,0.478 -9.149,0.716 -12.759,0.716 -3.605,0 -7.988,-0.358 -11.467,-0.716 1.289,5.631 1.289,20.617 1.289,27.329 0,15.106 0,31.17 -0.129,45.558"
             id="path3115"
             style="fill:#231f20;fill-opacity:1;fill-rule:nonzero;stroke:none" /></g><g
           transform="translate(114.1108,52.9961)"
           id="g3117"><path
             d="m 0,0 c 1.032,-0.119 2.321,-0.119 3.867,-0.119 4.768,0 18.041,0 18.041,15.945 0,13.665 -9.408,14.386 -16.752,14.386 -1.675,0 -3.22,0 -4.897,-0.241 L 0,0 z m 23.712,-3.834 19.975,-29.374 c 2.06,-2.997 6.7,-8.871 9.278,-10.789 l -0.388,-0.716 c -4.381,0.599 -8.89,0.716 -13.401,0.716 -5.542,0 -8.636,-0.238 -13.53,-0.716 -0.517,1.076 -2.707,5.872 -7.474,12.586 L 0.646,-6.833 C 0.519,-6.712 0.387,-6.595 0.13,-6.595 0,-6.595 0,-6.952 0,-7.313 c 0,-11.269 0.13,-17.861 0.387,-26.732 0.132,-3.599 0.132,-7.196 0.645,-10.668 -3.608,0.478 -7.732,0.716 -11.467,0.716 -3.351,0 -8.505,-0.358 -11.731,-0.716 1.162,11.025 1.033,22.295 1.033,46.391 0,18.584 0,29.731 -1.033,36.805 5.673,-0.479 10.827,-0.717 14.05,-0.717 7.987,0 16.107,0.717 24.097,0.717 4.638,0 28.091,0 28.091,-21.339 0,-14.269 -13.013,-20.14 -20.36,-20.978"
             id="path3119"
             style="fill:#231f20;fill-opacity:1;fill-rule:nonzero;stroke:none" /></g><g
           transform="translate(207.7671,67.2617)"
           id="g3121"><path
             d="m 0,0 -10.954,-26.253 c 3.476,-0.24 6.959,-0.36 10.435,-0.36 3.611,0 7.219,0.241 10.826,0.358 L 0,0 z m -0.39,25.177 c 2.193,-0.48 4.512,-0.718 6.701,-0.718 2.064,0 4.253,0.238 6.317,0.716 12.112,-33.086 26.93,-66.653 34.921,-84.154 -3.995,0.599 -8.119,0.716 -12.115,0.716 -4.251,0 -9.664,0 -13.659,-0.716 -3.737,12.464 -6.828,20.016 -8.246,23.615 -4.383,0.119 -8.764,0.36 -13.4,0.36 -4.772,0 -9.794,-0.12 -14.822,-0.36 -2.19,-5.875 -5.541,-14.746 -7.73,-23.615 -2.449,0.358 -4.513,0.716 -7.088,0.716 -1.289,0 -4.383,0 -7.217,-0.716 7.862,15.464 27.448,60.54 36.338,84.156"
             id="path3123"
             style="fill:#231f20;fill-opacity:1;fill-rule:nonzero;stroke:none" /></g><g
           transform="translate(333.9463,63.4277)"
           id="g3125"><path
             d="m 0,0 c 0,2.278 -0.641,21.939 -1.673,28.052 2.065,-0.48 5.156,-0.718 7.216,-0.718 2.32,0 4.643,0.238 6.957,0.718 -1.801,-10.31 -2.314,-43.997 -2.314,-57.304 0,-8.633 0,-17.385 1.024,-25.893 -2.704,0.358 -5.022,0.716 -7.6,0.716 -2.705,0 -5.156,-0.238 -7.471,-0.716 -4.124,5.271 -5.675,6.951 -19.458,22.056 l -32.989,34.526 0,-29.968 c 0,-5.395 1.03,-21.584 1.546,-26.614 -2.321,0.358 -4.64,0.716 -6.958,0.716 -2.578,0 -4.252,-0.358 -6.701,-0.716 1.933,22.056 1.933,27.33 1.933,47.112 0,21.578 0,27.572 -0.901,36.085 2.963,-0.361 5.798,-0.718 8.633,-0.718 2.578,0 5.155,0.357 7.602,0.718 C -38.525,12.705 -10.819,-16.184 0,-27.217 L 0,0 z"
             id="path3127"
             style="fill:#231f20;fill-opacity:1;fill-rule:nonzero;stroke:none" /></g><g
           transform="translate(411.2656,72.416)"
           id="g3129"><path
             d="m 0,0 c -2.449,9.111 -10.049,11.751 -16.751,11.751 -2.578,0 -14.565,-0.241 -14.565,-10.432 0,-7.551 5.803,-9.709 24.873,-16.783 3.739,-1.436 8.892,-4.313 12.371,-9.231 2.963,-4.076 3.866,-8.871 3.866,-13.545 0,-15.585 -11.984,-27.334 -34.279,-27.334 -13.012,0 -20.491,3.715 -24.61,5.872 1.546,4.796 2.702,12.348 2.702,16.544 l 3.226,0 c 2.06,-10.789 11.851,-14.025 19.585,-14.025 10.826,0 15.464,5.874 15.464,11.99 0,6.712 -4.509,8.63 -20.234,14.984 -11.723,4.793 -19.715,11.03 -19.715,24.215 0,16.545 11.858,25.897 31.316,25.897 12.242,0 18.811,-3.237 23.838,-5.755 C 4.638,10.071 3.092,2.999 2.836,0 L 0,0 z"
             id="path3131"
             style="fill:#231f20;fill-opacity:1;fill-rule:nonzero;stroke:none" /></g><g
           transform="translate(460.7461,8.2832)"
           id="g3133"><path
             d="m 0,0 c -3.99,0.478 -7.472,0.716 -11.725,0.716 -3.995,0 -8.119,-0.238 -12.114,-0.716 1.291,10.546 1.291,37.52 1.291,43.274 0,12.469 -0.129,28.055 -1.161,39.922 3.48,-0.479 7.476,-0.717 12.113,-0.717 5.285,0 9.923,0.476 11.73,0.717 C -0.77,69.527 -1.154,53.465 -1.154,39.798 -1.154,28.41 -1.154,10.546 0,0"
             id="path3135"
             style="fill:#231f20;fill-opacity:1;fill-rule:nonzero;stroke:none" /></g><g
           transform="translate(495.1543,81.1699)"
           id="g3137"><path
             d="m 0,0 c -6.184,0 -14.432,-0.122 -23.968,-1.081 0.514,2.04 0.644,4.08 0.644,6.115 0,1.797 -0.259,3.599 -0.644,5.276 6.569,-0.718 19.588,-0.959 34.793,-0.959 15.978,0 26.416,0.241 34.793,0.959 -0.385,-2.157 -0.647,-3.956 -0.647,-5.755 0,-1.918 0.389,-4.317 0.647,-5.636 C 38.014,-0.238 29.766,0 22.55,0 c -0.256,-5.277 -0.256,-13.429 -0.256,-22.538 0,-7.074 -0.129,-22.061 -0.129,-29.973 0,-7.191 0.256,-13.783 0.903,-20.376 -3.739,0.478 -9.151,0.716 -12.761,0.716 -3.606,0 -7.985,-0.358 -11.469,-0.716 1.291,5.631 1.291,20.617 1.291,27.329 0,15.106 0,31.17 -0.129,45.558"
             id="path3139"
             style="fill:#231f20;fill-opacity:1;fill-rule:nonzero;stroke:none" /></g></g></g></g></svg>