<?xml version="1.0" encoding="UTF-8" standalone="no"?>
<!-- Created with Inkscape (http://www.inkscape.org/) -->

<svg
   xmlns:dc="http://purl.org/dc/elements/1.1/"
   xmlns:cc="http://creativecommons.org/ns#"
   xmlns:rdf="http://www.w3.org/1999/02/22-rdf-syntax-ns#"
   xmlns:svg="http://www.w3.org/2000/svg"
   xmlns="http://www.w3.org/2000/svg"
   version="1.1"
   width="473.38925"
   height="197.78145"
   id="svg3443"
   xml:space="preserve"><metadata
     id="metadata3449"><rdf:RDF><cc:Work
         rdf:about=""><dc:format>image/svg+xml</dc:format><dc:type
           rdf:resource="http://purl.org/dc/dcmitype/StillImage" /><dc:title></dc:title></cc:Work></rdf:RDF></metadata><defs
     id="defs3447"><clipPath
       id="clipPath3457"><path
         d="M 0,612 1008,612 1008,0 0,0 0,612 z"
         id="path3459" /></clipPath></defs><g
     transform="matrix(1.25,0,0,-1.25,-394.66013,521.75825)"
     id="g3451"><g
       id="g3453"><g
         clip-path="url(#clipPath3457)"
         id="g3455"><g
           transform="translate(386.4146,345.2261)"
           id="g3461"><path
             d="m 0,0 c 3.775,-4.832 8.475,-9.778 11.5,-11.862 0.02,-0.013 3.503,9.849 3.61,9.785 0.026,-0.015 1.945,-12.888 2.058,-12.946 4.124,-2.136 10.996,-4.896 10.971,-4.93 -0.061,-0.081 -0.171,11.307 -0.109,11.309 0.011,10e-4 4.564,-12.398 4.37,-12.374 6.173,-0.767 17.387,-3.71 17.387,-3.71 0,0 -3.259,13.419 -11.014,24.405 C 31.665,9.693 13.571,9.37 13.571,9.37 c 3.235,0.413 6.615,0.86 10.021,1.51 -0.002,0.005 -2.763,10.182 -1.889,10.451 1.099,0.338 5.88,-9.215 5.81,-9.207 2.197,0.814 5.178,2.031 8.416,3.662 -0.009,-0.038 -3.311,8.911 -3.347,8.966 -0.322,1.96 8.436,-5.942 8.189,-5.942 4.958,3.403 9.592,10.267 12.109,15.301 C 28.002,33.143 24.557,55.574 2.585,24.879 15.833,56.544 -7.83,49.597 -17.523,71.245 -25.714,59.75 -28.461,52.41 -26.885,46.289 c 0.017,-0.006 10.787,-0.683 10.822,-1.403 0.163,-0.691 -8.953,-3.697 -9,-3.62 2.775,-5.387 7.186,-10.162 9.554,-16.71 -21.971,30.695 -29.403,9.356 -54.282,10.325 4.139,-8.278 9.854,-15.391 16.254,-18.772 -0.017,0.009 4.265,8.345 5.339,7.859 1.058,0.113 -1.053,-7.489 -0.974,-9.861 2.601,-1.03 6.892,-1.991 9.588,-2.633 0.001,-0.107 0.542,9.891 1.46,9.702 1.119,-0.222 1.755,-5.987 2.033,-10.589 2.8,-0.493 5.589,-0.871 8.304,-1.217 0,0 -15.4,2.632 -24.048,-10.848 -8.909,-15.605 -12.168,-17.091 -12.168,-17.091 0,0 13.986,-4.341 18.093,-4.396 -0.434,0.006 2.535,9.692 3.575,9.966 0.77,0.203 1.214,-8.85 1.272,-8.835 2.629,0.693 6.612,2.464 10.813,4.705 -0.113,0.052 -2.223,10.442 -0.709,10.633 0.023,-0.052 3.955,-8.648 3.989,-8.647 4.802,3.028 9.502,9.869 11.138,12.396 C -5.816,10.663 0,0 0,0"
             id="path3463"
             style="fill:#21b5b0;fill-opacity:1;fill-rule:nonzero;stroke:none" /></g><g
           transform="translate(386.4146,345.2261)"
           id="g3465"><path
             d="m 0,0 c 3.775,-4.832 8.475,-9.778 11.5,-11.862 0.02,-0.013 3.503,9.849 3.61,9.785 0.026,-0.015 1.945,-12.888 2.058,-12.946 4.124,-2.136 10.996,-4.896 10.971,-4.93 -0.061,-0.081 -0.171,11.307 -0.109,11.309 0.011,10e-4 4.564,-12.398 4.37,-12.374 6.173,-0.767 17.387,-3.71 17.387,-3.71 0,0 -3.259,13.419 -11.014,24.405 C 31.665,9.693 13.571,9.37 13.571,9.37 c 3.235,0.413 6.615,0.86 10.021,1.51 -0.002,0.005 -2.763,10.182 -1.889,10.451 1.099,0.338 5.88,-9.215 5.81,-9.207 2.197,0.814 5.178,2.031 8.416,3.662 -0.009,-0.038 -3.311,8.911 -3.347,8.966 -0.322,1.96 8.436,-5.942 8.189,-5.942 4.958,3.403 9.592,10.267 12.109,15.301 C 28.002,33.143 24.557,55.574 2.585,24.879 15.833,56.544 -7.83,49.597 -17.523,71.245 -25.714,59.75 -28.461,52.41 -26.885,46.289 c 0.017,-0.006 10.787,-0.683 10.822,-1.403 0.163,-0.691 -8.953,-3.697 -9,-3.62 2.775,-5.387 7.186,-10.162 9.554,-16.71 -21.971,30.695 -29.403,9.356 -54.282,10.325 4.139,-8.278 9.854,-15.391 16.254,-18.772 -0.017,0.009 4.265,8.345 5.339,7.859 1.058,0.113 -1.053,-7.489 -0.974,-9.861 2.601,-1.03 6.892,-1.991 9.588,-2.633 0.001,-0.107 0.542,9.891 1.46,9.702 1.119,-0.222 1.755,-5.987 2.033,-10.589 2.8,-0.493 5.589,-0.871 8.304,-1.217 0,0 -15.4,2.632 -24.048,-10.848 -8.909,-15.605 -12.168,-17.091 -12.168,-17.091 0,0 13.986,-4.341 18.093,-4.396 -0.434,0.006 2.535,9.692 3.575,9.966 0.77,0.203 1.214,-8.85 1.272,-8.835 2.629,0.693 6.612,2.464 10.813,4.705 -0.113,0.052 -2.223,10.442 -0.709,10.633 0.023,-0.052 3.955,-8.648 3.989,-8.647 4.802,3.028 9.502,9.869 11.138,12.396 C -5.816,10.663 0,0 0,0 z"
             id="path3467"
             style="fill:none;stroke:#ffffff;stroke-width:1.824;stroke-linecap:round;stroke-linejoin:round;stroke-miterlimit:4;stroke-opacity:1;stroke-dasharray:none" /></g><g
           transform="translate(372.1982,362.0273)"
           id="g3469"><path
             d="m 0,0 c -6.786,6.786 -13.626,13.749 -23.345,13.651 -6.382,-0.064 -16.963,-2.1 -16.963,-2.1"
             id="path3471"
             style="fill:none;stroke:#ffffff;stroke-width:1.824;stroke-linecap:round;stroke-linejoin:round;stroke-miterlimit:4;stroke-opacity:1;stroke-dasharray:none" /></g><g
           transform="translate(368.644,351.688)"
           id="g3473"><path
             d="M 0,0 C -10.986,-2.585 -25.189,-1.231 -32.943,-16.417"
             id="path3475"
             style="fill:none;stroke:#ffffff;stroke-width:1.824;stroke-linecap:round;stroke-linejoin:round;stroke-miterlimit:4;stroke-opacity:1;stroke-dasharray:none" /></g><g
           transform="translate(368.644,401.4468)"
           id="g3477"><path
             d="M 0,0 C 3.231,-9.37 16.478,-6.462 11.309,-27.142"
             id="path3479"
             style="fill:none;stroke:#ffffff;stroke-width:1.824;stroke-linecap:round;stroke-linejoin:round;stroke-miterlimit:4;stroke-opacity:1;stroke-dasharray:none" /></g><g
           transform="translate(428.4194,373.9824)"
           id="g3481"><path
             d="M 0,0 C -17.125,3.877 -24.56,8.723 -43.623,-13.572"
             id="path3483"
             style="fill:none;stroke:#ffffff;stroke-width:1.824;stroke-linecap:round;stroke-linejoin:round;stroke-miterlimit:4;stroke-opacity:1;stroke-dasharray:none" /></g><g
           transform="translate(429.3882,327.7778)"
           id="g3485"><path
             d="M 0,0 C -12.278,12.924 -15.832,21.002 -35.219,21.002"
             id="path3487"
             style="fill:none;stroke:#ffffff;stroke-width:1.824;stroke-linecap:round;stroke-linejoin:round;stroke-miterlimit:4;stroke-opacity:1;stroke-dasharray:none" /></g><g
           transform="translate(392.5542,262.9941)"
           id="g3489"><path
             d="m 0,0 c -5.17,-1.777 -23.587,-8.078 -29.888,6.462 -6.3,14.541 -5.816,29.242 -3.554,39.42 2.262,10.178 7.281,26.069 11.632,33.603 3.82,6.616 7.124,11.782 10.506,9.217 1.3,-0.987 1.081,-4.227 -1.136,-10.994 -3.026,-9.237 -5.078,-14.344 -8.886,-22.456 -3.716,-7.916 -11.954,-23.426 -7.916,-22.94 4.039,0.484 13.733,4.2 8.24,-3.393 -5.493,-7.594 -7.594,-17.933 -0.808,-13.895 6.785,4.04 10.36,2.462 4.847,-5.492 C -26.818,-4.685 0,0 0,0"
             id="path3491"
             style="fill:#f89faa;fill-opacity:1;fill-rule:nonzero;stroke:none" /></g><g
           transform="translate(392.5542,262.9941)"
           id="g3493"><path
             d="m 0,0 c -5.17,-1.777 -23.587,-8.078 -29.888,6.462 -6.3,14.541 -5.816,29.242 -3.554,39.42 2.262,10.178 7.281,26.069 11.632,33.603 3.82,6.616 7.124,11.782 10.506,9.217 1.3,-0.987 1.081,-4.227 -1.136,-10.994 -3.026,-9.237 -5.078,-14.344 -8.886,-22.456 -3.716,-7.916 -11.954,-23.426 -7.916,-22.94 4.039,0.484 13.733,4.2 8.24,-3.393 -5.493,-7.594 -7.594,-17.933 -0.808,-13.895 6.785,4.04 10.36,2.462 4.847,-5.492 C -26.818,-4.685 0,0 0,0 z"
             id="path3495"
             style="fill:none;stroke:#ffffff;stroke-width:1.824;stroke-linecap:butt;stroke-linejoin:miter;stroke-miterlimit:4;stroke-opacity:1;stroke-dasharray:none" /></g><g
           transform="translate(392.436,262.8994)"
           id="g3497"><path
             d="m 0,0 c 0,0 -26.737,-4.604 -16.882,9.612 5.513,7.954 1.938,9.533 -4.847,5.492 -6.786,-4.038 -4.685,6.302 0.808,13.895 5.492,7.593 -4.201,3.878 -8.24,3.393 -4.039,-0.485 4.201,15.024 7.916,22.94 3.808,8.112 5.86,13.219 8.886,22.457 2.216,6.766 2.595,9.841 1.295,10.827 0,0 4.122,-0.706 4.036,-6.627 C -7.199,70.192 -10.556,59.881 -13.005,42.085 -15.723,22.332 -4.201,6.946 0,0"
             id="path3499"
             style="fill:#f89faa;fill-opacity:1;fill-rule:nonzero;stroke:none" /></g><g
           transform="translate(392.436,262.8994)"
           id="g3501"><path
             d="m 0,0 c 0,0 -26.737,-4.604 -16.882,9.612 5.513,7.954 1.938,9.533 -4.847,5.492 -6.786,-4.038 -4.685,6.302 0.808,13.895 5.492,7.593 -4.201,3.878 -8.24,3.393 -4.039,-0.485 4.201,15.024 7.916,22.94 3.808,8.112 5.86,13.219 8.886,22.457 2.216,6.766 2.595,9.841 1.295,10.827 0,0 4.122,-0.706 4.036,-6.627 C -7.199,70.192 -10.556,59.881 -13.005,42.085 -15.723,22.332 -4.201,6.946 0,0 z"
             id="path3503"
             style="fill:none;stroke:#ffffff;stroke-width:1.824;stroke-linecap:round;stroke-linejoin:round;stroke-miterlimit:4;stroke-opacity:1;stroke-dasharray:none" /></g><g
           transform="translate(368.7119,344.5493)"
           id="g3505"><path
             d="M 0,0 C 4.747,0 8.595,3.848 8.595,8.595 8.595,13.342 4.747,17.19 0,17.19 -4.747,17.19 -8.595,13.342 -8.595,8.595 -8.595,3.848 -4.747,0 0,0"
             id="path3507"
             style="fill:#5a8fd2;fill-opacity:1;fill-rule:nonzero;stroke:none" /></g><g
           transform="translate(368.7119,344.5493)"
           id="g3509"><path
             d="M 0,0 C 4.747,0 8.595,3.848 8.595,8.595 8.595,13.342 4.747,17.19 0,17.19 -4.747,17.19 -8.595,13.342 -8.595,8.595 -8.595,3.848 -4.747,0 0,0 z"
             id="path3511"
             style="fill:none;stroke:#ffffff;stroke-width:1.824;stroke-linecap:butt;stroke-linejoin:miter;stroke-miterlimit:4;stroke-opacity:1;stroke-dasharray:none" /></g><g
           transform="translate(379.6196,359.9033)"
           id="g3513"><path
             d="M 0,0 C 4.747,0 8.595,3.848 8.595,8.595 8.595,13.342 4.747,17.19 0,17.19 -4.747,17.19 -8.595,13.342 -8.595,8.595 -8.595,3.848 -4.747,0 0,0"
             id="path3515"
             style="fill:#5a8fd2;fill-opacity:1;fill-rule:nonzero;stroke:none" /></g><g
           transform="translate(379.6196,359.9033)"
           id="g3517"><path
             d="M 0,0 C 4.747,0 8.595,3.848 8.595,8.595 8.595,13.342 4.747,17.19 0,17.19 -4.747,17.19 -8.595,13.342 -8.595,8.595 -8.595,3.848 -4.747,0 0,0 z"
             id="path3519"
             style="fill:none;stroke:#ffffff;stroke-width:1.824;stroke-linecap:butt;stroke-linejoin:miter;stroke-miterlimit:4;stroke-opacity:1;stroke-dasharray:none" /></g><g
           transform="translate(387.9048,342.9497)"
           id="g3521"><path
             d="M 0,0 C 4.747,0 8.595,3.848 8.595,8.595 8.595,13.342 4.747,17.19 0,17.19 -4.747,17.19 -8.595,13.342 -8.595,8.595 -8.595,3.848 -4.747,0 0,0"
             id="path3523"
             style="fill:#5a8fd2;fill-opacity:1;fill-rule:nonzero;stroke:none" /></g><g
           transform="translate(387.9048,342.9497)"
           id="g3525"><path
             d="M 0,0 C 4.747,0 8.595,3.848 8.595,8.595 8.595,13.342 4.747,17.19 0,17.19 -4.747,17.19 -8.595,13.342 -8.595,8.595 -8.595,3.848 -4.747,0 0,0 z"
             id="path3527"
             style="fill:none;stroke:#ffffff;stroke-width:1.824;stroke-linecap:butt;stroke-linejoin:miter;stroke-miterlimit:4;stroke-opacity:1;stroke-dasharray:none" /></g><g
           transform="translate(417.9995,315.9028)"
           id="g3529"><path
             d="m 0,0 c 10.274,0 18.098,-4.979 18.098,-13.83 0,-9.088 -8.456,-14.858 -17.387,-14.858 -1.976,0 -3.951,0.237 -5.769,1.106 6.797,0.396 14.146,4.584 14.146,12.171 0,6.955 -4.9,9.721 -11.222,9.721 -1.896,0 -3.714,-0.158 -5.532,-0.474 l 0,-35.643 c 0,-4.426 -0.079,-7.586 4.11,-9.957 l 0,-0.237 -15.727,0 0,0.237 c 4.03,1.422 3.556,7.27 3.556,10.826 l 0,29.795 c 0,3.556 0.474,9.325 -3.477,10.906 L -19.204,0 0,0 z"
             id="path3531"
             style="fill:#21b5b0;fill-opacity:1;fill-rule:nonzero;stroke:none" /></g><g
           transform="translate(467.4844,262.874)"
           id="g3533"><path
             d="m 0,0 c -5.216,0.315 -10.432,1.896 -10.432,8.219 l 0,12.487 c -2.292,-1.186 -4.979,-1.818 -7.587,-2.45 -3.793,-0.869 -8.061,-1.739 -8.061,-6.56 0,-4.9 4.426,-6.48 8.615,-6.48 1.896,0 3.793,0.554 5.69,1.106 L -16.438,0.395 C -17.782,0.157 -19.204,0 -20.548,0 c -7.982,0 -13.514,5.058 -13.514,11.617 0,14.699 23.63,7.903 23.63,16.517 0,3.794 -4.663,5.058 -7.587,5.058 -4.03,0 -7.191,-1.502 -10.748,-3.161 l 5.295,7.904 5.137,0.473 c 8.535,0 15.016,-2.45 15.095,-12.012 l 0,-11.855 c 0,-6.243 0.158,-8.613 6.718,-9.325 L 0,0 z"
             id="path3535"
             style="fill:#21b5b0;fill-opacity:1;fill-rule:nonzero;stroke:none" /></g><g
           transform="translate(477.5205,315.9028)"
           id="g3537"><path
             d="m 0,0 c 1.817,0 3.872,-0.079 5.058,1.265 l 0.237,0 0,-44.495 c 0,-3.635 -0.553,-6.559 2.924,-8.534 l 0,-0.237 -13.04,0 0,0.237 c 3.398,1.975 2.924,4.899 2.924,8.534 l 0,34.458 c 0,3.635 0.474,6.559 -2.924,8.535 L -4.821,0 0,0 z"
             id="path3539"
             style="fill:#21b5b0;fill-opacity:1;fill-rule:nonzero;stroke:none" /></g><g
           transform="translate(495.2598,300.2549)"
           id="g3541"><path
             d="m 0,0 c 1.739,0 3.636,0.079 4.9,1.027 l 0.237,0 0,-6.243 c 2.766,4.268 5.848,6.243 11.143,6.243 5.612,0 9.405,-2.213 12.329,-6.876 3.082,4.268 6.796,6.876 12.645,6.876 11.222,0 14.146,-6.401 14.146,-16.438 l 0,-12.171 c 0,-3.397 -0.474,-7.271 3.477,-8.534 l 0,-0.238 -13.672,0 0,0.238 c 3.478,1.975 3.004,4.899 3.004,8.534 l 0,10.196 c 0,8.061 -2.529,13.198 -8.852,13.198 -7.113,0 -9.088,-4.505 -9.088,-11.934 l 0,-11.46 c 0,-3.635 -0.474,-6.559 3.002,-8.534 l 0,-0.238 -13.197,0 0,0.238 c 3.477,1.975 3.002,4.899 3.002,8.534 l 0,10.907 c 0,8.298 -4.108,12.487 -9.009,12.487 -6.006,0 -8.93,-3.714 -8.93,-11.302 l 0,-12.092 c 0,-3.635 -0.474,-6.48 2.924,-8.534 l 0,-0.238 -13.119,0 0,0.238 c 3.477,1.975 3.003,4.899 3.003,8.534 l 0,18.889 c 0,3.635 0.474,6.48 -3.003,8.457 L -5.058,0 0,0 z"
             id="path3543"
             style="fill:#21b5b0;fill-opacity:1;fill-rule:nonzero;stroke:none" /></g><g
           transform="translate(584.165,274.1758)"
           id="g3545"><path
             d="m 0,0 c 0,-4.506 -0.079,-7.587 4.11,-10.037 l 0,-0.237 -15.648,0 0,0.237 c 3.951,1.501 3.476,7.27 3.476,10.826 l 0,35.248 -6.954,0 c -3.397,0 -6.955,-0.87 -9.404,-3.161 l -0.237,0 2.765,9.404 0.238,0 c 0.949,-0.395 1.975,-0.395 3.004,-0.553 l 1.974,0 29.479,0 c 1.343,0 2.608,0.079 3.635,0.553 l 0.237,0 -2.529,-9.404 -0.237,0 c -1.027,2.766 -4.188,3.161 -6.797,3.161 L 0,36.037 0,0 z"
             id="path3547"
             style="fill:#21b5b0;fill-opacity:1;fill-rule:nonzero;stroke:none" /></g><g
           transform="translate(600.2236,300.2549)"
           id="g3549"><path
             d="m 0,0 c 1.817,0 3.714,0.079 4.82,1.027 l 0.238,0 0,-6.006 c 1.738,3.556 5.374,6.006 9.325,6.006 l 2.846,-0.237 0,-7.27 c -0.871,0.948 -2.292,1.264 -3.636,1.264 -6.006,0 -8.535,-3.161 -8.535,-11.301 l 0,-11.065 c 0,-3.635 -0.475,-6.559 3.003,-8.534 l 0,-0.238 -13.199,0 0,0.238 c 3.479,1.975 3.004,4.899 3.004,8.534 l 0,18.889 c 0,3.635 0.475,6.48 -2.925,8.457 L -5.059,0 0,0 z"
             id="path3551"
             style="fill:#21b5b0;fill-opacity:1;fill-rule:nonzero;stroke:none" /></g><g
           transform="translate(651.2109,262.874)"
           id="g3553"><path
             d="m 0,0 c -5.217,0.315 -10.432,1.896 -10.432,8.219 l 0,12.487 c -2.293,-1.186 -4.979,-1.818 -7.588,-2.45 -3.793,-0.869 -8.06,-1.739 -8.06,-6.56 0,-4.9 4.426,-6.48 8.614,-6.48 1.897,0 3.794,0.554 5.691,1.106 L -16.438,0.395 C -17.782,0.157 -19.205,0 -20.548,0 c -7.982,0 -13.515,5.058 -13.515,11.617 0,14.699 23.631,7.903 23.631,16.517 0,3.794 -4.663,5.058 -7.588,5.058 -4.03,0 -7.191,-1.502 -10.748,-3.161 l 5.296,7.904 5.137,0.473 c 8.535,0 15.016,-2.45 15.095,-12.012 l 0,-11.855 c 0,-6.243 0.157,-8.613 6.717,-9.325 L 0,0 z"
             id="path3555"
             style="fill:#21b5b0;fill-opacity:1;fill-rule:nonzero;stroke:none" /></g><g
           transform="translate(660.7725,300.2549)"
           id="g3557"><path
             d="m 0,0 c 1.738,0 3.636,0.079 5.295,1.027 l 0.237,0 0,-6.085 c 2.766,3.793 6.006,6.085 11.144,6.085 4.425,0 9.483,-1.738 12.012,-5.453 2.212,-3.161 1.975,-8.06 1.975,-11.775 l 0,-11.459 c 0,-3.636 -0.474,-6.481 3.004,-8.456 l 0,-0.238 -13.198,0 0,0.238 c 3.477,1.975 3.003,4.899 3.003,8.456 l 0,10.669 c 0,8.456 -2.371,12.803 -9.563,12.803 -7.191,0 -8.377,-4.821 -8.377,-9.485 l 0,-13.987 c 0,-3.636 -0.473,-6.481 3.003,-8.456 l 0,-0.238 -13.197,0 0,0.238 c 3.476,1.975 3.003,4.899 3.003,8.534 l 0,18.81 c 0,3.635 0.473,6.559 -3.003,8.536 L -4.662,0 0,0 z"
             id="path3559"
             style="fill:#21b5b0;fill-opacity:1;fill-rule:nonzero;stroke:none" /></g></g></g></g></svg>